HIERARCHY
ROOT pelvis
{
	OFFSET 0.000000 0.000000 0.000000
	CHANNELS 6 Xposition Yposition Zposition Xrotation Yrotation Zrotation
	JOINT l_hip
	{
		OFFSET 0.195211 -0.245059 -0.022011
		CHANNELS 3 Xrotation Yrotation Zrotation
		JOINT l_knee
		{
			OFFSET 0.083896 -0.996307 -0.018298
			CHANNELS 3 Xrotation Yrotation Zrotation
			JOINT l_ankle
			{
				OFFSET -0.031606 -1.048662 -0.119000
				CHANNELS 3 Xrotation Yrotation Zrotation
				JOINT l_foot
				{
					OFFSET 0.063841 -0.149483 0.312863
					CHANNELS 3 Xrotation Yrotation Zrotation
					End Site
					{
						OFFSET 0.000000 0.000000 0.000000
					}
				}
			}
		}
	}
	JOINT r_hip
	{
		OFFSET -0.188785 -0.243354 -0.013119
		CHANNELS 3 Xrotation Yrotation Zrotation
		JOINT r_knee
		{
			OFFSET -0.098896 -1.013926 -0.025127
			CHANNELS 3 Xrotation Yrotation Zrotation
			JOINT r_ankle
			{
				OFFSET 0.038376 -1.049454 -0.114596
				CHANNELS 3 Xrotation Yrotation Zrotation
				JOINT r_foot
				{
					OFFSET -0.060300 -0.126955 0.322518
					CHANNELS 3 Xrotation Yrotation Zrotation
					End Site
					{
						OFFSET 0.000000 0.000000 0.000000
					}
				}
			}
		}
	}
	JOINT spine1
	{
		OFFSET -0.006861 0.282462 -0.060688
		CHANNELS 3 Xrotation Yrotation Zrotation
		JOINT spine2
		{
			OFFSET 0.009796 0.349212 -0.004686
			CHANNELS 3 Xrotation Yrotation Zrotation
			JOINT spine3
			{
				OFFSET 0.005545 0.134239 0.076232
				CHANNELS 3 Xrotation Yrotation Zrotation
				JOINT neck
				{
					OFFSET -0.005369 0.569656 -0.136135
					CHANNELS 3 Xrotation Yrotation Zrotation
					JOINT head
					{
						OFFSET 0.009621 0.170484 0.137338
						CHANNELS 3 Xrotation Yrotation Zrotation
						End Site
						{
							OFFSET 0.000000 0.000000 0.000000
						}
					}
				}
				JOINT l_collar
				{
					OFFSET 0.205981 0.322192 -0.100872
					CHANNELS 3 Xrotation Yrotation Zrotation
					JOINT l_shoulder
					{
						OFFSET 0.233388 0.086823 -0.019950
						CHANNELS 3 Xrotation Yrotation Zrotation
						JOINT l_elbow
						{
							OFFSET 0.687295 -0.032736 -0.075278
							CHANNELS 3 Xrotation Yrotation Zrotation
							JOINT l_wrist
							{
								OFFSET 0.651109 0.024639 0.000120
								CHANNELS 3 Xrotation Yrotation Zrotation
								JOINT l_hand
								{
									OFFSET 0.217934 -0.026487 -0.036124
									CHANNELS 3 Xrotation Yrotation Zrotation
									End Site
									{
										OFFSET 0.000000 0.000000 0.000000
									}
								}
							}
						}
					}
				}
				JOINT r_collar
				{
					OFFSET -0.210726 0.316244 -0.114374
					CHANNELS 3 Xrotation Yrotation Zrotation
					JOINT r_shoulder
					{
						OFFSET -0.244017 0.089684 -0.026814
						CHANNELS 3 Xrotation Yrotation Zrotation
						JOINT r_elbow
						{
							OFFSET -0.672913 -0.035979 -0.055153
							CHANNELS 3 Xrotation Yrotation Zrotation
							JOINT r_wrist
							{
								OFFSET -0.670689 0.023586 -0.009661
								CHANNELS 3 Xrotation Yrotation Zrotation
								JOINT r_hand
								{
									OFFSET -0.219937 -0.019827 -0.028502
									CHANNELS 3 Xrotation Yrotation Zrotation
									End Site
									{
										OFFSET 0.000000 0.000000 0.000000
									}
								}
							}
						}
					}
				}
			}
		}
	}
}
MOTION
Frames: 15
Frame Time: 0.016667
0.000000 0.000000 0.000000 0.000000 0.000000 0.000000 -9.999095 -4.449323 2.529681 64.105075 -5.636460 -3.887009 0.000000 0.000000 0.000000 0.000000 0.000000 0.000000 6.808811 -3.999476 -3.217195 3.583633 4.537149 4.151108 0.000000 0.000000 0.000000 0.000000 0.000000 0.000000 6.622019 5.027323 4.033350 3.076735 0.385055 0.767172 3.988232 0.259569 -1.457715 16.784824 1.312752 0.448834 26.574216 -1.343120 -6.638260 2.467840 -1.488572 -29.716357 -0.049861 -15.890424 -52.935596 23.949270 -11.959796 1.734865 0.000000 0.000000 0.000000 0.000000 0.000000 0.000000 1.079426 7.645732 29.260412 1.439740 17.989431 44.116684 3.202206 11.805779 -2.637552 0.000000 0.000000 0.000000 0.000000 0.000000 0.000000 
0.000000 0.000000 0.000000 0.000000 0.000000 0.000000 -12.064726 -4.767541 2.203353 63.512166 -5.451111 -4.531542 0.000000 0.000000 0.000000 0.000000 0.000000 0.000000 8.581791 -4.397704 -3.045764 2.305786 4.489549 3.724085 0.000000 0.000000 0.000000 0.000000 0.000000 0.000000 6.868983 5.560456 3.716474 2.852088 0.080031 0.691189 4.017683 0.294190 -1.491990 16.986053 1.147322 0.846278 25.983931 -1.409999 -6.589431 2.681063 -1.345176 -29.614355 0.684605 -15.226488 -52.614711 25.004067 -11.891386 1.537961 0.000000 0.000000 0.000000 0.000000 0.000000 0.000000 0.659617 7.508120 28.753287 0.372856 18.251502 43.670355 2.625434 13.381459 -3.398358 0.000000 0.000000 0.000000 0.000000 0.000000 0.000000 
0.000000 0.000000 0.000000 0.000000 0.000000 0.000000 -14.143710 -5.255949 1.789700 62.351776 -5.506634 -5.067193 0.000000 0.000000 0.000000 0.000000 0.000000 0.000000 10.275699 -4.893382 -2.845373 0.916262 4.217398 3.505087 0.000000 0.000000 0.000000 0.000000 0.000000 0.000000 7.140790 6.113333 3.417275 2.360735 -0.165094 0.622795 4.008041 0.331423 -1.540960 17.246832 0.936253 1.175382 25.724001 -1.711000 -6.505946 2.964707 -1.050891 -29.445603 1.468979 -14.515473 -52.165500 26.090008 -12.121851 1.581476 0.000000 0.000000 0.000000 0.000000 0.000000 0.000000 0.344461 7.227273 28.303524 -0.410358 18.444574 43.258298 2.462677 15.121525 -4.242014 0.000000 0.000000 0.000000 0.000000 0.000000 0.000000 
0.000000 0.000000 0.000000 0.000000 0.000000 0.000000 -15.611330 -5.514645 1.281821 60.326793 -5.183902 -5.876580 0.000000 0.000000 0.000000 0.000000 0.000000 0.000000 11.370692 -5.122429 -2.988915 0.919550 4.106830 3.185672 0.000000 0.000000 0.000000 0.000000 0.000000 0.000000 7.557983 6.702569 2.946202 2.243481 -0.189753 0.458112 4.057492 0.419549 -1.680649 17.183847 0.797090 1.898513 25.618712 -2.193839 -6.361412 3.195252 -0.852494 -29.421618 2.043099 -13.784204 -51.700468 26.086625 -12.239011 1.867851 0.000000 0.000000 0.000000 0.000000 0.000000 0.000000 -0.061449 7.190305 27.911860 -1.239738 18.829236 42.724242 1.700705 17.074768 -5.023645 0.000000 0.000000 0.000000 0.000000 0.000000 0.000000 
0.000000 0.000000 0.000000 0.000000 0.000000 0.000000 -17.589699 -5.944136 1.244146 58.211909 -4.657541 -6.655285 0.000000 0.000000 0.000000 0.000000 0.000000 0.000000 11.676735 -5.284526 -2.933368 1.664107 4.032137 3.068554 0.000000 0.000000 0.000000 0.000000 0.000000 0.000000 7.848079 7.268880 2.683276 1.694470 -0.057312 0.347285 4.051879 0.483058 -1.733723 17.135919 0.607562 2.387408 25.544522 -2.751853 -6.157448 3.449940 -0.390302 -29.321183 2.445193 -12.966965 -51.426984 25.392832 -12.019288 2.069859 0.000000 0.000000 0.000000 0.000000 0.000000 0.000000 -0.293621 6.830647 27.413336 -1.859020 19.040279 42.479958 1.065272 19.144850 -5.871203 0.000000 0.000000 0.000000 0.000000 0.000000 0.000000 
0.000000 0.000000 0.000000 0.000000 0.000000 0.000000 -18.986408 -6.047970 0.738013 55.416461 -3.704444 -7.113840 0.000000 0.000000 0.000000 0.000000 0.000000 0.000000 12.309359 -5.496832 -2.836008 2.320284 3.921500 2.757376 0.000000 0.000000 0.000000 0.000000 0.000000 0.000000 8.376516 7.779666 2.520606 1.509032 0.105683 0.145476 4.114127 0.648872 -1.855580 16.775839 0.405805 2.954331 25.329778 -3.220319 -6.073502 3.401659 0.127499 -29.370815 2.612367 -12.175456 -51.109388 24.179599 -11.874771 2.148260 0.000000 0.000000 0.000000 0.000000 0.000000 0.000000 -0.697011 6.663447 27.012773 -2.508507 19.299338 41.960440 -0.037344 21.095097 -6.595559 0.000000 0.000000 0.000000 0.000000 0.000000 0.000000 
0.000000 0.000000 0.000000 0.000000 0.000000 0.000000 -20.216827 -6.002885 0.592746 52.190396 -2.595783 -7.601398 0.000000 0.000000 0.000000 0.000000 0.000000 0.000000 12.839665 -5.610875 -2.782464 3.124223 3.840567 2.502161 0.000000 0.000000 0.000000 0.000000 0.000000 0.000000 8.871941 8.199079 2.252582 1.323989 0.301901 -0.034512 4.168874 0.890040 -1.961537 16.586342 0.222353 3.552537 25.538385 -3.920910 -5.772086 3.447673 0.665838 -29.370233 2.708229 -11.418724 -50.816478 22.355424 -11.723800 2.493382 0.000000 0.000000 0.000000 0.000000 0.000000 0.000000 -1.029156 6.522465 26.576392 -3.072531 19.641284 41.406269 -1.116605 23.157859 -7.066669 0.000000 0.000000 0.000000 0.000000 0.000000 0.000000 
0.000000 0.000000 0.000000 0.000000 0.000000 0.000000 -21.414791 -6.156979 0.593862 48.633647 -1.501368 -7.890605 0.000000 0.000000 0.000000 0.000000 0.000000 0.000000 13.250998 -5.805587 -2.472868 3.869326 3.551767 2.361547 0.000000 0.000000 0.000000 0.000000 0.000000 0.000000 9.324366 8.573364 2.144529 0.823424 0.530767 -0.128286 4.243651 1.010490 -1.873865 16.179391 -0.077863 4.043739 25.643885 -4.656657 -5.483485 3.468939 1.389614 -29.440237 2.611135 -10.605063 -50.764091 19.956400 -11.532350 3.050223 0.000000 0.000000 0.000000 0.000000 0.000000 0.000000 -1.344265 6.215380 26.171544 -3.344838 19.845257 40.853967 -1.984287 25.255697 -7.621135 0.000000 0.000000 0.000000 0.000000 0.000000 0.000000 
0.000000 0.000000 0.000000 0.000000 0.000000 0.000000 -21.528166 -6.013290 0.313218 44.368511 -0.392066 -7.724030 0.000000 0.000000 0.000000 0.000000 0.000000 0.000000 14.564184 -6.084532 -2.112730 3.868946 3.138175 2.298164 0.000000 0.000000 0.000000 0.000000 0.000000 0.000000 9.793961 8.780683 1.964513 1.036051 0.499713 -0.222309 4.270012 1.241598 -1.774817 16.179121 -0.288775 4.568419 25.374633 -5.111967 -5.204157 3.291303 1.675862 -29.477954 2.183731 -9.741518 -50.683569 17.075836 -10.765409 3.298063 0.000000 0.000000 0.000000 0.000000 0.000000 0.000000 -1.701770 6.371580 25.609432 -4.039482 20.102414 40.376157 -3.179430 26.901030 -7.940971 0.000000 0.000000 0.000000 0.000000 0.000000 0.000000 
0.000000 0.000000 0.000000 0.000000 0.000000 0.000000 -21.784953 -5.419272 0.559716 40.141689 0.960504 -7.663211 0.000000 0.000000 0.000000 0.000000 0.000000 0.000000 15.867962 -6.519685 -1.754022 3.521173 2.839731 2.390552 0.000000 0.000000 0.000000 0.000000 0.000000 0.000000 10.125740 8.995912 1.847628 1.018641 0.452544 -0.229364 4.235456 1.449070 -1.618922 16.398202 -0.300105 4.870603 25.031816 -5.236552 -5.147336 3.264562 1.914172 -29.412548 1.988525 -9.011320 -50.758329 15.130390 -10.562518 3.670951 0.000000 0.000000 0.000000 0.000000 0.000000 0.000000 -1.914571 6.428786 24.986926 -4.849993 20.356459 39.955002 -4.201867 28.402669 -8.152298 0.000000 0.000000 0.000000 0.000000 0.000000 0.000000 
0.000000 0.000000 0.000000 0.000000 0.000000 0.000000 -21.484197 -4.880759 0.378949 34.680099 2.166251 -7.188219 0.000000 0.000000 0.000000 0.000000 0.000000 0.000000 17.303735 -6.916025 -1.350657 2.963081 2.519127 2.500444 0.000000 0.000000 0.000000 0.000000 0.000000 0.000000 10.184466 9.144835 1.931342 1.073860 0.412830 -0.299693 4.232229 1.535783 -1.519557 16.478137 -0.868653 5.072735 24.664674 -5.955264 -4.897853 3.249783 2.279862 -29.359315 1.924765 -8.425311 -50.840006 13.468586 -10.639261 3.925480 0.000000 0.000000 0.000000 0.000000 0.000000 0.000000 -2.217160 6.378959 24.486675 -5.133008 20.550949 39.475546 -4.543808 29.811374 -8.303533 0.000000 0.000000 0.000000 0.000000 0.000000 0.000000 
0.000000 0.000000 0.000000 0.000000 0.000000 0.000000 -21.054330 -4.449446 0.076795 28.807014 3.059620 -6.492780 0.000000 0.000000 0.000000 0.000000 0.000000 0.000000 18.161284 -7.157355 -1.000282 2.997545 2.204606 2.525254 0.000000 0.000000 0.000000 0.000000 0.000000 0.000000 10.214923 9.163327 1.971633 1.088030 0.394646 -0.410132 4.208857 1.571999 -1.504178 16.450115 -0.703434 5.460730 24.577198 -6.048342 -4.853346 3.139682 2.676718 -29.282156 1.832993 -8.038658 -50.744712 11.953154 -10.604078 4.177931 0.000000 0.000000 0.000000 0.000000 0.000000 0.000000 -2.681420 6.341061 24.026177 -5.580154 21.074019 38.990048 -5.080538 30.702100 -8.400612 0.000000 0.000000 0.000000 0.000000 0.000000 0.000000 
0.000000 0.000000 0.000000 0.000000 0.000000 0.000000 -19.982580 -3.902163 -0.268280 22.376443 3.543491 -5.496313 0.000000 0.000000 0.000000 0.000000 0.000000 0.000000 19.343033 -7.534443 -0.555012 2.971261 1.885285 2.471064 0.000000 0.000000 0.000000 0.000000 0.000000 0.000000 10.222022 9.330463 2.028022 1.446856 0.444416 -0.517167 4.194641 1.712202 -1.407245 16.363810 -0.806636 5.640130 23.863911 -6.340048 -4.732279 2.954174 2.709652 -29.094016 1.825433 -7.678256 -50.884727 10.715573 -10.955539 4.582664 0.000000 0.000000 0.000000 0.000000 0.000000 0.000000 -2.753805 6.510640 23.368973 -6.119777 21.076304 38.676032 -5.595727 32.099064 -8.769981 0.000000 0.000000 0.000000 0.000000 0.000000 0.000000 
0.000000 0.000000 0.000000 0.000000 0.000000 0.000000 -19.055395 -3.624181 -0.868423 16.169921 3.546372 -4.102229 0.000000 0.000000 0.000000 0.000000 0.000000 0.000000 20.044995 -7.595973 -0.181219 3.313575 1.698058 2.333838 0.000000 0.000000 0.000000 0.000000 0.000000 0.000000 10.158254 9.290798 2.025300 1.380692 0.457081 -0.614850 4.210784 1.708864 -1.389398 16.234521 -0.793117 5.941745 23.623901 -6.702422 -4.767473 2.870334 3.214851 -28.872745 1.951844 -7.424977 -50.833493 10.022724 -11.334969 4.801634 0.000000 0.000000 0.000000 0.000000 0.000000 0.000000 -3.129101 6.305869 22.995944 -6.358122 21.489691 38.347766 -5.721823 33.008900 -8.881026 0.000000 0.000000 0.000000 0.000000 0.000000 0.000000 
0.000000 0.000000 0.000000 0.000000 0.000000 0.000000 -18.190314 -3.508577 -1.438070 10.471680 2.884201 -2.613313 0.000000 0.000000 0.000000 0.000000 0.000000 0.000000 20.487844 -7.653642 0.174630 3.894019 1.301245 2.332223 0.000000 0.000000 0.000000 0.000000 0.000000 0.000000 10.161592 9.222075 2.076445 1.220821 0.477845 -0.738553 4.146350 1.695902 -1.362358 16.044925 -0.507864 6.154750 23.274879 -6.884352 -4.843014 2.781939 3.643677 -28.736229 2.201702 -7.241099 -50.791644 9.526188 -11.885987 5.075303 0.000000 0.000000 0.000000 0.000000 0.000000 0.000000 -3.403508 6.126545 22.769456 -6.729093 21.834077 38.300602 -5.942596 33.699270 -9.008024 0.000000 0.000000 0.000000 0.000000 0.000000 0.000000 
